<?xml version="1.0" encoding="UTF-8"?>
<svg xmlns="http://www.w3.org/2000/svg" width="192" height="114" viewBox="0 0 192 114" fill="none">
  <g clip-path="url(#clip0_10772_5045)">
    <path fill-rule="evenodd" clip-rule="evenodd" d="M86.5957 5.76384C85.8401 3.50251 84.5157 1.62374 82.5162 0C82.492 0.202516 82.484 0.406617 82.4923 0.610389C82.8041 2.63709 82.996 4.64508 82.8709 6.71768C82.699 9.44961 82.1886 12.1501 81.3512 14.7582C79.5539 20.4829 76.5298 25.6143 73.3859 30.6844C72.7714 31.6756 72.1439 32.6592 71.5164 33.6428L71.5159 33.6435L71.5153 33.6445C69.4467 36.887 67.3779 40.1298 65.7769 43.6437C64.9323 45.497 64.3292 47.4114 64.3686 49.4517C64.4217 52.1789 65.5611 54.4913 67.5057 56.4007C68.2621 57.1422 69.0322 57.8703 69.8024 58.5985L69.803 58.5991L69.8032 58.5993L69.8034 58.5995L69.8036 58.5997C70.4775 59.2367 71.1515 59.8739 71.8165 60.5204C74.1774 62.8174 75.1712 65.5667 74.604 68.8431C73.9586 72.6141 72.5562 76.218 70.48 79.4407C67.002 84.8611 62.2834 89.1152 57.3045 93.1073C55.5721 94.4957 53.809 95.8465 52.0456 97.1975L52.0453 97.1977C50.8352 98.1248 49.6249 99.052 48.4243 99.9916C48.2668 100.115 48.0992 100.228 47.9292 100.343C47.4869 100.642 47.0275 100.952 46.6835 101.481C51.216 100.601 55.5759 99.0017 59.5952 96.7442C64.8369 93.8088 69.4282 89.8545 73.0946 85.1179C76.8341 80.2758 79.5788 74.752 81.173 68.8601C81.7658 66.7178 82.0896 64.6333 81.1987 62.479C80.0576 59.7263 77.8662 57.9003 75.6646 56.0793C75.1405 55.6462 74.6015 55.2308 74.0623 54.8153C72.904 53.9227 71.7455 53.0299 70.7353 51.9613C69.4795 50.6334 68.8901 49.2001 69.7467 47.3944C70.2758 46.2567 70.8654 45.1477 71.5132 44.0722C72.6715 42.1898 73.8696 40.3321 75.0677 38.4743L75.0679 38.474L75.0681 38.4737L75.0682 38.4734L75.0686 38.4728L75.0687 38.4727C77.0834 35.3487 79.0983 32.2244 80.9246 28.9824C83.241 24.8797 85.297 20.675 86.4963 16.1031C87.3975 12.6703 87.7471 9.21705 86.5957 5.76384ZM62.0403 71.5007C62.5612 71.0383 63.0769 70.5758 63.6354 70.0657C63.3449 69.9875 63.0373 69.9981 62.753 70.0963C59.7256 70.8257 56.8814 72.0278 54.1075 73.3982C51.3816 74.7465 48.8579 76.3719 46.7745 78.6316C45.0029 80.5461 43.2398 82.4668 41.4854 84.3937C40.2207 85.784 38.938 87.1582 37.6553 88.5325L37.6549 88.5329L37.6545 88.5333L37.6541 88.5337L37.6538 88.5341C36.2277 90.0619 34.8016 91.5898 33.4002 93.1398C32.9679 93.6175 32.5214 94.081 32.0752 94.5441L32.0751 94.5442L32.0751 94.5442L32.0751 94.5443L32.075 94.5443C31.6351 95.0009 31.1955 95.4572 30.7702 95.9265C30.5645 96.152 30.3594 96.378 30.1542 96.604C28.0422 98.9305 25.9315 101.255 23.2658 103.01C23.0684 103.139 22.8714 103.27 22.6744 103.4L22.6742 103.4C20.3404 104.942 18.0127 106.48 15.2131 107.126C13.7927 107.453 13.0337 106.684 13.3764 105.276C13.9254 103.036 15.1903 101.157 16.4492 99.2881L16.5615 99.1213C20.1372 93.7958 24.0463 88.7097 27.9558 83.6231L27.9559 83.6229L27.9561 83.6226C29.8106 81.2098 31.6651 78.7969 33.4841 76.3583L33.882 75.8245C37.5354 70.9242 41.1919 66.0198 44.0571 60.6055C45.3078 58.2371 46.2947 55.8295 46.2091 53.0275C46.132 50.4788 44.9686 48.6799 43.06 47.2024C40.9731 45.5855 38.5624 44.5619 36.1175 43.6438C30.4344 41.51 24.9722 38.9732 20.1972 35.1765C18.895 34.1564 17.6409 33.0325 16.9761 31.436C16.2771 29.7544 17.1817 28.1341 18.9173 27.8128C20.4302 27.539 21.9037 27.777 23.3617 28.0678C26.8586 28.7666 30.2151 29.9381 33.4978 31.2983C37.5224 32.9577 41.607 33.8963 46.0052 33.4678C48.4004 33.2332 50.7597 32.9084 53.0556 32.2283C56.472 31.215 59.6348 29.7272 62.1757 27.1531C62.196 27.1328 62.2167 27.1124 62.2375 27.0919L62.2376 27.0919C62.4858 26.848 62.7525 26.586 62.5629 26.2111C62.3401 25.769 61.8724 25.6925 61.4458 25.8031C60.9545 25.9327 60.4797 26.1175 60.0306 26.3539C57.5073 27.6656 54.736 28.4404 51.8939 28.6289C48.2431 28.8603 44.5778 28.5572 41.0159 27.7294C37.7604 27.0002 34.5808 26.0154 31.4014 25.0306L31.4014 25.0306L31.4014 25.0306L31.4014 25.0306L31.4013 25.0306L31.4012 25.0305L31.4011 25.0305C29.6881 24.4999 27.9751 23.9694 26.2504 23.4788L25.9509 23.3937C22.801 22.4986 19.6304 21.5976 16.2908 22.2172C13.6831 22.6984 11.6905 23.9736 11.0188 26.9354C10.5682 28.9264 10.7584 30.8936 11.1508 32.8472C11.7693 35.9264 13.767 38.0636 16.1931 39.8845C19.2668 42.1959 22.7332 43.7831 26.1994 45.3703C26.5375 45.5251 26.8756 45.6799 27.2133 45.8354C27.5599 45.9956 27.9073 46.1544 28.2546 46.3132L28.2552 46.3135C30.7696 47.4632 33.284 48.6129 35.5298 50.2561C37.3665 51.6044 38.4528 53.3097 38.0913 55.6578C37.7683 57.6384 37.1578 59.5621 36.2786 61.3689C32.7337 68.8194 27.7256 75.3127 22.6952 81.7855C21.1796 83.7363 19.6143 85.6485 18.0492 87.5605C17.4576 88.2833 16.866 89.006 16.2771 89.7308C13.9241 92.6428 11.5602 95.5474 9.18555 98.4446C7.6504 100.315 6.16837 102.209 5.46418 104.583C4.11236 109.132 5.92165 112.217 10.3558 113.465C12.1817 113.977 14.0917 114.125 15.9755 113.9C18.782 113.577 21.4256 112.897 23.8466 111.443C27.143 109.457 29.9546 106.866 32.6617 104.186C36.5527 100.339 40.1987 96.2598 43.7213 92.0738C45.3073 90.1887 46.9191 88.3258 48.5307 86.4629L48.5311 86.4624C49.9487 84.8239 51.3662 83.1855 52.766 81.5322C52.9912 81.2665 53.2161 81.0007 53.4409 80.7348L53.441 80.7347C56.1593 77.5211 58.8755 74.31 62.0403 71.5007ZM51.0869 25.2775C44.9497 25.4016 39.7377 20.3111 39.6572 14.0967C39.5784 7.84655 44.9326 2.23572 51.8579 2.65229C57.4553 2.99234 62.5508 7.58301 62.5971 13.9249C62.645 20.3366 57.2052 25.4696 51.0869 25.2775ZM43.0804 13.9419C43.0445 18.6295 46.759 22.0198 51.1331 21.996C55.6169 21.9722 58.9922 18.6635 59.1858 14.3568C59.4 9.43458 55.5295 5.93207 51.116 5.95077C46.6579 5.97117 43.0684 9.40567 43.0804 13.9419ZM7.35253 34.0987L7.35255 34.0986C7.71411 32.666 8.07532 31.2348 8.41449 29.8005C5.94822 33.5443 3.95603 37.5754 2.48291 41.8026C0.353816 47.7374 -0.421547 54.0671 0.212742 60.3353C0.409523 62.3343 0.735731 64.3186 1.18934 66.276C2.62169 72.2779 5.2174 77.785 8.52928 82.9725C9.8328 85.0548 11.2788 87.046 12.8572 88.9318C12.5471 88.0698 12.2027 87.2231 11.8463 86.3815C9.38595 80.5581 6.95986 74.7194 5.28936 68.6121C4.28363 64.9294 3.6377 61.1922 3.64798 57.3497C3.62768 54.2285 3.85685 51.1107 4.33332 48.0255C4.84218 44.9174 5.48639 41.8383 6.20085 38.7778C6.56661 37.2127 6.95977 35.6549 7.35253 34.0987ZM57.7521 101.737C61.2444 99.942 64.6169 97.9259 67.8488 95.7015C71.6391 93.1167 75.1375 90.1336 78.2831 86.8042C81.8382 83.0109 84.8332 78.813 87.0211 74.0795C88.6609 70.5283 89.7985 66.7692 90.4015 62.9089C90.8708 59.9864 91.0213 57.0222 90.8504 54.0676C90.5232 48.6931 89.3084 43.4802 87.4083 38.4356C86.4575 35.9296 85.3708 33.4765 84.153 31.0871C84.1443 31.0699 84.1343 31.0532 84.1243 31.0366C84.0769 30.9577 84.0296 30.879 84.1273 30.747C87.1205 34.8395 89.49 39.2313 91.0372 44.0396C92.0807 47.3117 92.7261 50.696 92.9595 54.1203C93.5729 62.5842 91.4912 70.4189 87.518 77.8133C85.6024 81.3838 83.1849 84.6143 80.4333 87.6186C76.0267 92.4229 70.7276 96.3386 64.8265 99.1513C62.5602 100.243 60.1905 101.109 57.7521 101.737ZM38.5091 11.7315C30.8916 13.998 23.8515 17.5124 16.9417 21.3294C23.2279 16.1046 30.4462 12.9523 38.5091 11.7315Z" fill="#0374B9"></path>
    <path fill-rule="evenodd" clip-rule="evenodd" d="M102.122 38.0318H102.122H102.122H102.122H102.122H102.122H102.122C102.479 38.0254 102.848 38.0188 103.234 38.043C103.286 37.5342 103.347 37.0316 103.407 36.5328C103.544 35.3965 103.678 34.2802 103.707 33.1565C103.745 31.6843 103.878 30.2192 104.011 28.7564C104.05 28.3204 104.09 27.8845 104.127 27.4488C104.155 27.1202 104.165 26.7887 104.175 26.4563V26.4563C104.195 25.8117 104.216 25.1638 104.365 24.5278C104.591 23.5637 103.847 22.6745 102.85 22.3582C102.27 22.1724 101.688 22.1924 101.109 22.2122C100.745 22.2247 100.382 22.2371 100.02 22.1984C99.905 23.1982 99.8159 24.1112 99.7679 25.0361C99.7238 25.8799 99.6403 26.718 99.5571 27.5538L99.5571 27.5538C99.5046 28.0805 99.4522 28.6063 99.4099 29.132C99.3557 29.8092 99.291 30.4855 99.2262 31.1615C99.0633 32.8619 98.9005 34.5614 98.9078 36.2731C98.913 37.1912 99.4201 37.6129 100.212 37.8611C100.828 38.0551 101.454 38.0439 102.122 38.0318ZM127.853 28.3911C128.851 28.5543 129.09 29.2854 129.152 30.1134C129.533 30.2718 129.892 30.2345 130.226 30.1998L130.288 30.1933C131.359 30.1066 132.209 29.4758 132.335 28.7464C132.56 27.4627 131.972 26.3372 130.699 25.9631C128.352 25.2762 126.022 25.351 123.897 26.6823C121.869 27.9558 121.865 31.3206 123.882 32.4904C124.445 32.8173 125.045 33.0319 125.643 33.2456C126.158 33.4298 126.672 33.6133 127.158 33.8676C127.184 33.8812 127.21 33.8948 127.237 33.9085C127.612 34.102 128.006 34.3054 127.886 34.8486C127.768 35.3802 127.356 35.4201 126.95 35.4594C126.911 35.4631 126.873 35.4668 126.836 35.4709C125.655 35.5863 124.466 35.3451 123.426 34.7789C122.818 34.4678 122.379 34.699 122.013 35.1087C121.084 36.1391 121.439 37.2171 122.914 37.6591C124.937 38.2644 127.038 38.4905 129.082 37.9805C131.636 37.3395 132.517 35.5389 131.808 33.3592C131.403 32.1146 130.23 31.6266 129.082 31.2203C128.931 31.1682 128.78 31.1174 128.629 31.0666C127.914 30.8258 127.197 30.5848 126.539 30.2001C125.934 29.8601 125.801 29.2446 126.298 28.8399C126.508 28.6572 126.757 28.5223 127.025 28.4447C127.294 28.3672 127.577 28.3489 127.853 28.3911ZM144.762 38.1796C146.124 37.8362 147.063 36.9265 146.88 35.1957L146.829 35.178C145.586 34.7468 145.572 34.742 145.542 34.2588C145.481 33.2581 145.612 32.2733 145.743 31.2868L145.743 31.2866C145.766 31.1083 145.79 30.9298 145.812 30.7512C146.111 28.3709 145.771 26.5788 143.092 25.8783C141.308 25.4226 139.434 25.4472 137.664 25.9497C136.686 26.2167 135.848 26.6417 135.231 27.4493C134.674 28.1804 134.564 29.2771 134.981 29.8637C135.347 30.3789 136.99 30.9178 137.609 30.6968C137.768 30.6461 137.91 30.5514 138.017 30.4237C138.124 30.296 138.192 30.1407 138.214 29.9759C138.323 29.4471 138.575 28.9201 139.16 28.7058C139.841 28.4559 140.544 28.3488 141.154 28.8588C141.703 29.3128 141.643 29.8952 141.583 30.4749C141.57 30.6073 141.556 30.7396 141.55 30.8702C141.304 30.8921 141.063 30.9102 140.826 30.9281C140.305 30.9673 139.802 31.0053 139.305 31.0777C137.818 31.2919 136.357 31.5554 135.077 32.4209C133.166 33.708 132.849 36.2464 134.508 37.5216C135.661 38.4091 137.026 38.2952 138.378 38.1116C139.562 37.9501 140.419 37.1952 141.276 36.4352C141.872 37.9331 143.155 38.5843 144.762 38.1796ZM141.34 32.7795C140.407 32.7062 139.472 32.8707 138.622 33.2574C137.972 33.5566 137.594 34.1075 137.905 34.7298C138.197 35.3079 138.836 35.4354 139.526 35.2025C140.686 34.8054 141.178 33.9594 141.34 32.7795ZM111.936 59.3694C111.992 57.6045 111.264 56.2528 109.268 55.6526C110.21 55.3721 110.853 55.0218 111.288 54.2941C112.541 52.1994 112.114 49.4892 109.182 48.5643C107.043 47.89 104.869 47.9682 102.695 48.0464C102.025 48.0706 101.354 48.0947 100.684 48.0967C100.02 48.0984 99.7128 48.532 99.7865 49.2206C99.8918 50.1948 99.7865 51.1643 99.6817 52.1297C99.6465 52.4532 99.6114 52.7762 99.5844 53.0989C99.5118 53.9658 99.4251 54.8315 99.3385 55.6972L99.3385 55.6972C99.1487 57.5922 98.959 59.4868 98.9179 61.3927C98.9166 61.4492 98.9147 61.5059 98.9128 61.5628L98.9128 61.5628C98.8988 61.9761 98.8846 62.3959 99.1286 62.792C99.7102 63.7411 100.661 63.8784 101.616 64.0164C101.674 64.0248 101.732 64.0331 101.789 64.0417C103.141 64.2276 104.511 64.235 105.864 64.0638C107.21 63.9108 108.5 63.62 109.7 63.0215C111.214 62.2717 111.884 60.9574 111.936 59.3694ZM103.592 59.2793C103.677 58.6819 103.728 58.0801 103.744 57.477C104.622 57.2832 105.418 57.137 106.277 57.3954C107.257 57.6929 107.57 58.322 107.658 59.2368C107.745 60.1515 106.998 60.9948 106.133 61.1512C106.081 61.1603 106.03 61.165 105.979 61.1696H105.979C105.914 61.1755 105.851 61.1812 105.79 61.1955C103.989 61.6018 103.278 61.0152 103.592 59.2793ZM104.243 51.5187L104.244 51.5186L104.244 51.5185C104.266 51.3925 104.289 51.2612 104.315 51.1215C104.493 51.1215 104.671 51.121 104.849 51.1205H104.849H104.849H104.849H104.849H104.849H104.849H104.85H104.85H104.85H104.85H104.85H104.85H104.85H104.851H104.851H104.851C105.265 51.1195 105.679 51.1184 106.092 51.1232C107.173 51.1351 107.788 51.7472 107.858 52.7078C107.932 53.6225 107.152 54.2414 106.145 54.3519H105.973C103.953 54.3825 103.693 54.0544 104.144 52.0583C104.179 51.8832 104.21 51.7068 104.243 51.5187L104.243 51.5187ZM133.209 63.8985C132.795 63.8477 132.394 63.8631 132.003 63.8781C131.4 63.9013 130.821 63.9235 130.253 63.6996C129.617 63.4463 129.27 63.0195 129.254 62.3071C129.243 60.6245 129.346 58.943 129.564 57.2743C129.628 56.7256 129.664 56.1703 129.7 55.6146C129.722 55.2715 129.745 54.9283 129.773 54.5863L129.801 54.2507C129.86 53.5515 129.918 52.8524 129.945 52.1532C129.956 51.7346 130.275 51.707 130.507 51.6868L130.52 51.6856C131.397 51.6015 132.281 51.7118 133.109 52.0087C133.747 52.2433 134.012 52.7993 134.118 53.5219C135.146 51.8013 136.743 51.3218 138.537 51.4816C139.957 51.6108 141.34 51.9781 141.815 53.7157C142.418 52.8877 143.036 52.2025 143.927 51.8217C145.387 51.196 148.281 51.4204 149.156 52.5511C149.549 53.0611 149.814 53.5712 149.823 54.1986C149.847 56.0425 149.655 57.8724 149.463 59.7058C149.423 60.0802 149.384 60.4547 149.347 60.8296C149.334 60.9609 149.32 61.0924 149.307 61.2241C149.24 61.8744 149.173 62.5274 149.163 63.1793C149.163 63.7608 148.942 63.9359 148.404 63.8781C148.148 63.8654 147.891 63.8654 147.635 63.8781C145.378 63.8781 144.659 62.9855 145.055 60.7837C145.318 59.2124 145.482 57.6264 145.546 56.0349C145.579 55.4177 145.514 54.8209 144.851 54.5574C144.188 54.2938 143.196 54.6016 142.779 55.1915C142.058 56.2117 141.719 57.3747 141.611 58.6005C141.527 59.5516 141.458 60.5079 141.389 61.4646L141.389 61.4649L141.389 61.4652L141.389 61.4656L141.389 61.4659L141.389 61.4662L141.389 61.4665L141.389 61.4668L141.389 61.4671L141.389 61.4674L141.389 61.4677L141.389 61.468L141.389 61.4683L141.389 61.4686L141.389 61.469L141.389 61.4693L141.389 61.4696L141.389 61.4699C141.347 62.0507 141.305 62.6316 141.26 63.2116C141.227 63.6503 141.068 63.9495 140.526 63.8832C140.225 63.8458 139.922 63.8576 139.617 63.8694H139.617H139.617H139.617H139.617H139.617H139.617H139.617H139.617H139.617H139.617H139.617H139.617H139.617H139.617H139.617H139.617H139.617C139.133 63.8881 138.648 63.9069 138.17 63.7285C137.519 63.4837 137.163 63.0484 137.153 62.3683C137.127 60.4861 137.372 58.6278 137.643 56.7711C137.718 56.3779 137.718 55.9741 137.643 55.5809C137.526 55.1201 137.35 54.5982 136.75 54.5319C136.022 54.4519 135.345 54.5319 134.876 55.212C134.206 56.1981 133.887 57.3118 133.741 58.4543C133.574 59.7154 133.465 60.9799 133.352 62.2813L133.352 62.282C133.306 62.8139 133.26 63.352 133.209 63.8985ZM112.924 83.5535L112.924 83.5536C112.32 85.1825 111.716 86.8113 111.013 88.403C110.355 89.8907 109.762 90.1457 108.145 89.8805C106.527 89.6152 106.089 88.5526 105.78 87.2128C105.111 84.2657 104.39 81.3288 103.618 78.4021C103.664 79.427 103.586 80.4455 103.507 81.4629C103.431 82.4538 103.355 83.4438 103.394 84.438C103.437 85.5386 103.37 86.6393 103.304 87.7356C103.273 88.2482 103.242 88.7598 103.222 89.2701C103.209 89.622 103.157 89.9009 102.72 89.8856C102.468 89.8767 102.214 89.8829 101.96 89.8891H101.96H101.96H101.96H101.959H101.959H101.959H101.959H101.959H101.959H101.959H101.959H101.959H101.959H101.959H101.959H101.958H101.958C101.338 89.9042 100.718 89.9193 100.112 89.7155C99.3877 89.469 98.9234 89.0575 98.9131 88.2057C98.897 85.9445 99.1345 83.7075 99.3732 81.4605L99.4152 81.0647C99.5865 79.4477 99.7218 77.8223 99.7715 76.1986L99.7753 76.071C99.8341 74.0739 99.8348 74.0485 101.882 74.0852C102.158 74.0904 102.433 74.0872 102.709 74.0841C103.417 74.0759 104.126 74.0678 104.845 74.2025C106.229 74.4609 106.832 75.3688 107.137 76.5386C107.617 78.3668 107.914 80.23 108.212 82.0934C108.369 83.0738 108.525 84.0543 108.708 85.0297C108.754 85.1483 108.812 85.2622 108.88 85.3697C109.035 84.8778 109.189 84.3926 109.341 83.9124C109.82 82.401 110.283 80.9394 110.73 79.4749C111.091 78.2951 111.432 77.1095 111.773 75.9232L111.773 75.9231L111.773 75.9231L111.773 75.923L111.773 75.923L111.773 75.923L111.773 75.9229L111.773 75.9229L111.773 75.9228L111.773 75.9228L111.773 75.9227L111.773 75.9227L111.773 75.9226L111.773 75.9226L111.773 75.9225L111.773 75.9225L111.773 75.9224L111.773 75.9224L111.773 75.9221L111.773 75.9219C111.888 75.5239 112.003 75.1258 112.118 74.7278C112.209 74.4184 112.341 74.0818 112.697 74.0954C113.305 74.1184 113.915 74.0974 114.525 74.0764H114.525H114.526H114.526H114.526H114.526H114.526H114.526H114.526H114.526H114.527H114.527H114.527H114.527H114.527H114.527H114.527H114.527C115.677 74.0369 116.827 73.9975 117.964 74.2518C118.93 74.466 119.3 74.9319 119.312 75.8585C119.339 77.6878 119.183 79.5064 119.027 81.3251L119.027 81.3252L119.027 81.3253L119.027 81.3254L119.027 81.3255L119.027 81.3256L119.027 81.3257L119.027 81.3258L119.027 81.3259L119.027 81.3259L119.027 81.326L119.027 81.3261L119.027 81.3262L119.027 81.3263L119.027 81.3264L119.027 81.3265L119.027 81.3266L119.027 81.3267C118.959 82.1107 118.892 82.8947 118.839 83.6797C118.798 84.293 118.74 84.9056 118.683 85.5181C118.577 86.6407 118.471 87.7633 118.468 88.8909C118.468 89.6118 118.276 89.9859 117.464 89.9111C117.197 89.8846 116.928 89.8875 116.659 89.8904C116.168 89.8957 115.676 89.901 115.2 89.7274C114.463 89.4588 113.975 89.0473 113.989 88.1479C114.01 86.6469 114.205 85.1667 114.4 83.6859C114.49 83.0062 114.579 82.3264 114.652 81.6445C114.738 80.9043 114.782 80.1668 114.826 79.4313L114.826 79.4309C114.843 79.1563 114.859 78.8819 114.878 78.6078C114.157 80.2304 113.54 81.892 112.924 83.5535ZM160.823 77.526L160.823 77.5258C160.853 77.0628 160.882 76.6025 160.922 76.141C160.954 75.7589 160.994 75.3785 161.035 74.9938L161.035 74.9935C161.089 74.4812 161.144 73.9614 161.182 73.4205C161.286 73.4174 161.389 73.4137 161.492 73.4101C162.332 73.3803 163.151 73.3512 163.954 73.6042C164.982 73.9289 165.496 74.825 165.208 76.0848C165.084 76.6277 165.055 77.1724 165.026 77.7163C165.007 78.0907 164.987 78.4647 164.936 78.8376C164.785 79.9442 164.729 81.0627 164.672 82.182L164.672 82.1823L164.672 82.1825L164.672 82.1828L164.672 82.183L164.672 82.1833L164.672 82.1835L164.672 82.1838L164.672 82.184L164.672 82.1843L164.672 82.1845L164.672 82.1848L164.672 82.185L164.672 82.1853L164.672 82.1856L164.672 82.1858C164.638 82.8606 164.604 83.5357 164.549 84.2087C164.465 85.24 164.359 86.2702 164.252 87.3006L164.252 87.3009L164.252 87.3012L164.252 87.3015L164.252 87.3018L164.252 87.3022L164.252 87.3025L164.252 87.3028L164.252 87.3031L164.252 87.3034L164.252 87.3038L164.252 87.3041L164.252 87.3044L164.252 87.3047L164.252 87.305L164.252 87.3064L164.252 87.3077C164.181 87.9974 164.11 88.6871 164.045 89.3774C164.026 89.5883 163.987 89.76 163.778 89.8603C163.116 90.1783 160.942 89.7668 160.387 89.2618C160.122 89.0187 160.087 88.7416 160.077 88.3522C159.947 88.4633 159.822 88.5761 159.697 88.6878L159.697 88.6879C159.079 89.2428 158.489 89.7712 157.617 89.9368C154.627 90.5047 152.124 89.3672 151.533 86.1368C151.078 83.6646 151.51 81.376 153.087 79.3816C153.988 78.2357 155.249 77.6627 156.685 77.4927C157.255 77.4447 157.828 77.4447 158.398 77.4927C159.424 77.5318 160.291 77.8718 160.723 78.9379C160.763 78.4622 160.793 77.9933 160.823 77.5272L160.823 77.5269L160.823 77.526ZM155.989 83.8839C155.989 83.9944 155.987 84.0974 155.986 84.1954C155.983 84.3781 155.98 84.5437 155.989 84.7085C156.076 86.0687 156.757 87.0175 157.725 87.1637C158.693 87.3099 159.991 86.5159 160.241 85.4822L160.286 85.2995C160.532 84.2951 160.781 83.2811 160.468 82.2007C160.135 81.0547 159.7 80.4715 158.821 80.3661C158.32 80.2955 157.809 80.3934 157.37 80.6442C156.931 80.895 156.589 81.2842 156.398 81.7501C156.087 82.4172 155.947 83.1501 155.989 83.8839ZM129.09 82.7322V82.0266C129.076 80.9979 128.78 80.5848 127.916 80.3841C127.505 80.299 127.076 80.3506 126.697 80.531C126.318 80.7113 126.009 81.0104 125.817 81.3822C125.753 81.5056 125.717 81.6497 125.68 81.7941C125.6 82.1134 125.519 82.4338 125.132 82.5333C124.51 82.6967 123.902 82.5005 123.311 82.3099L123.239 82.2867C122.675 82.1065 122.29 81.7766 122.221 81.1153C122.118 80.1121 122.425 79.2807 123.208 78.6788C124.12 77.9819 125.223 77.5753 126.373 77.5124C127.826 77.4274 129.285 77.3917 130.748 77.7794C132.621 78.2775 133.69 80.3756 133.277 82.1694C133.025 83.2684 132.953 84.4154 132.882 85.5483L132.875 85.6566C132.815 86.6207 133.54 86.8893 134.333 87.027C134.609 88.6814 133.402 89.7304 132.291 90.0263C130.591 90.4768 129.416 89.8699 128.668 88.1679C127.899 89.0622 127.029 89.8086 125.843 89.9804C124.781 90.1351 123.691 90.1946 122.656 89.8222C121.621 89.4499 121.035 88.6321 120.89 87.5949C120.801 87.0398 120.861 86.4711 121.066 85.9471C121.272 85.423 121.613 84.9625 122.057 84.6127C123.414 83.4888 125.072 83.1147 126.76 82.9447C126.988 82.9215 127.216 82.8902 127.446 82.8586L127.447 82.8585L127.447 82.8585C127.975 82.786 128.512 82.7121 129.09 82.7322ZM128.734 84.6603C127.793 84.5991 126.539 84.8303 125.992 85.1245C125.374 85.4543 125.122 86.0239 125.372 86.5969C125.61 87.141 126.229 87.277 126.827 87.1273C127.971 86.8502 128.672 85.9338 128.734 84.6603ZM153.487 27.5326C153.135 25.8391 151.624 25.5756 149.366 25.8952C149.341 26.0713 149.314 26.248 149.286 26.4253C149.228 26.7943 149.17 27.1656 149.14 27.5377C149.096 28.1091 149.067 28.6826 149.038 29.256C148.98 30.3956 148.922 31.535 148.751 32.6571C148.684 33.0977 148.667 33.5387 148.65 33.9796C148.629 34.5424 148.608 35.105 148.482 35.6665C148.384 36.0939 148.441 36.5417 148.643 36.9316C148.844 37.3216 149.177 37.6291 149.584 37.8003C150.26 38.0498 150.964 38.0387 151.668 38.0276C151.814 38.0253 151.959 38.0231 152.104 38.0231C152.419 38.0197 152.536 37.8394 152.566 37.5368C152.588 37.3148 152.609 37.0927 152.631 36.8705C152.762 35.5087 152.893 34.1448 153.08 32.7897C153.24 31.6471 153.493 30.5233 154.096 29.5031C154.506 28.8145 155.608 28.3623 156.452 28.5068C157.132 28.6224 157.587 29.005 157.674 29.6851C157.742 30.2191 157.742 30.7595 157.674 31.2935C157.634 31.6007 157.592 31.9076 157.551 32.2145L157.551 32.2147L157.551 32.2148L157.551 32.2149L157.551 32.215L157.551 32.2152L157.551 32.2153L157.551 32.2154L157.551 32.2155L157.551 32.2156L157.551 32.2158L157.551 32.2159L157.551 32.216C157.37 33.5428 157.189 34.8692 157.189 36.2123C157.186 37.1117 157.635 37.6082 158.505 37.8666C158.963 38.0043 159.422 38.0097 159.88 38.0152C160.096 38.0178 160.311 38.0203 160.527 38.0367C161.143 38.0826 161.284 37.8309 161.315 37.2529C161.371 36.201 161.487 35.1538 161.602 34.1071L161.602 34.1069L161.602 34.1067L161.602 34.1065L161.602 34.1063L161.602 34.1061L161.602 34.1059L161.602 34.1057L161.602 34.1055L161.602 34.1053L161.602 34.1051L161.603 34.1049L161.603 34.1046C161.659 33.5972 161.714 33.0899 161.764 32.5823C161.793 32.2816 161.832 31.98 161.87 31.6776V31.6776V31.6776V31.6776V31.6775V31.6775V31.6775V31.6774V31.6774V31.6774V31.6774V31.6773V31.6773C161.989 30.7487 162.109 29.8137 161.966 28.8826C161.81 27.8573 161.637 26.8083 160.595 26.1775C159.347 25.4191 158.008 25.5434 156.683 25.6665C156.534 25.6802 156.386 25.694 156.238 25.7065C155.054 25.8068 154.237 26.6178 153.487 27.5326ZM111.463 27.6798C112.491 26.1989 113.8 25.512 115.486 25.6225C115.728 25.6384 115.968 25.6405 116.209 25.6425C116.662 25.6462 117.116 25.65 117.583 25.7466C119.468 26.1377 119.908 27.5302 119.982 28.8071C120.08 30.4132 119.879 32.0063 119.678 33.6003L119.678 33.6006C119.626 34.0112 119.574 34.4218 119.528 34.8328C119.433 35.6642 119.346 36.5092 119.332 37.3509C119.332 37.8779 119.125 38.0667 118.616 38.031C118.408 38.0151 118.199 38.0204 117.989 38.0257C117.885 38.0283 117.78 38.031 117.676 38.031C115.676 38.0191 114.866 36.9207 115.234 34.9705C115.579 33.2666 115.741 31.5311 115.715 29.7932C115.726 29.5281 115.644 29.2675 115.483 29.0557C115.321 28.844 115.091 28.6943 114.831 28.632C114.326 28.4621 113.777 28.4709 113.277 28.6568C112.778 28.8428 112.358 29.1944 112.09 29.6521C111.477 30.7046 111.276 31.8794 111.105 33.0526C110.916 34.3555 110.782 35.6661 110.648 36.9766V36.9766V36.9766V36.9766V36.9766L110.648 36.9789L110.648 36.9811C110.629 37.1673 110.61 37.3535 110.591 37.5396C110.56 37.8354 110.469 38.0361 110.145 38.0395C110.001 38.0395 109.857 38.0419 109.713 38.0443H109.713H109.713H109.713H109.713H109.713H109.713H109.713H109.713H109.713H109.713H109.713C109.035 38.0556 108.357 38.0669 107.706 37.8286C106.916 37.5396 106.506 36.7337 106.585 35.6982C106.661 34.6765 106.734 33.6543 106.808 32.6323L106.808 32.6323L106.808 32.6316L106.808 32.6313L106.808 32.6311L106.808 32.6309L106.808 32.6306L106.808 32.6304L106.808 32.6302L106.808 32.6299L106.808 32.6297L106.808 32.6294C106.924 31.0181 107.039 29.4074 107.164 27.8005C107.18 27.6023 107.215 27.4061 107.25 27.2098C107.309 26.8826 107.369 26.5549 107.335 26.2159C107.328 26.1665 107.331 26.116 107.344 26.0678C107.358 26.0196 107.381 25.9749 107.414 25.9367C107.446 25.8985 107.487 25.8676 107.532 25.8463C107.578 25.8249 107.628 25.8135 107.678 25.8129C107.88 25.8129 108.083 25.8053 108.287 25.7976C109.068 25.768 109.852 25.7384 110.577 26.1445C111.132 26.4352 111.466 26.8977 111.463 27.6798ZM137.757 77.6479H137.757H137.757H137.757H137.757H137.757H137.757H137.757H137.757H137.757H137.756C137.464 77.6517 137.171 77.6555 136.885 77.6388C136.654 78.106 136.637 78.5245 136.62 78.9232L136.616 79.0109C136.58 80.0208 136.536 81.0342 136.426 82.039C136.388 82.3908 136.348 82.7424 136.307 83.0939L136.307 83.0947L136.307 83.0957L136.307 83.0967L136.307 83.0977L136.307 83.0987C136.12 84.7249 135.934 86.3499 135.945 87.9899C135.95 88.8536 136.382 89.4198 137.238 89.7037C137.656 89.8447 138.074 89.8465 138.491 89.8484C138.717 89.8494 138.944 89.8504 139.169 89.8737C139.848 89.9452 140.04 89.6442 140.064 89.01C140.134 87.0885 140.37 85.1766 140.771 83.2955C140.955 82.4301 141.184 81.4949 141.983 80.9151C142.656 80.4255 143.396 80.1636 144.253 80.5037C144.971 80.7944 145.176 81.381 145.176 82.0339C145.156 82.7902 145.087 83.5444 144.969 84.2918C144.781 85.652 144.597 87.0088 144.674 88.3877C144.715 89.1324 145.127 89.5167 145.822 89.7156C146.484 89.9051 147.147 89.8898 147.757 89.8757H147.758H147.758H147.758H147.758H147.758H147.759H147.759H147.759H147.759H147.759C147.997 89.8702 148.227 89.8649 148.445 89.872C148.836 89.4355 148.814 89.0237 148.791 88.6219L148.788 88.5646C148.744 87.7541 148.859 86.9437 148.971 86.1552L148.982 86.0736L149.009 85.8816C149.273 84.0172 149.371 82.1334 149.302 80.252C149.258 79.0619 148.35 77.8717 147.164 77.6643C144.856 77.2562 142.577 77.1287 140.929 79.339C140.322 77.6146 139.044 77.6312 137.757 77.6479ZM126.117 63.8141C123.271 64.0794 122.473 63.7699 121.995 62.2244C120.609 64.2647 117.503 64.8054 115.419 63.3737C114.002 62.4012 113.848 60.9577 114.059 59.5057C114.136 58.9744 114.164 58.4432 114.191 57.912C114.217 57.4094 114.243 56.9069 114.311 56.4044C114.482 55.1088 114.58 53.7894 114.672 52.4785C114.712 51.8919 115.015 51.727 115.445 51.6828C116.179 51.6163 116.919 51.6931 117.623 51.9089C118.673 52.215 119.01 53.1229 118.822 54.5256C118.599 56.1001 118.428 57.6864 118.32 59.2727C118.243 60.3983 118.637 60.9917 119.36 61.143C120.306 61.3487 121.048 60.9611 121.587 60.031C122.181 58.9983 122.344 57.8599 122.508 56.721C122.536 56.5286 122.563 56.3362 122.593 56.1443C122.693 55.5074 122.725 54.8656 122.757 54.2232C122.788 53.6069 122.819 52.9901 122.91 52.3765C122.989 51.8426 123.241 51.6862 123.66 51.6658C124.448 51.6257 125.237 51.7312 125.985 51.9769C126.671 52.2031 127.044 53.1195 126.967 54.1125C126.899 54.9958 126.837 55.8798 126.775 56.7639L126.775 56.7641L126.775 56.7642L126.775 56.7644L126.775 56.7645L126.775 56.7647L126.775 56.7648L126.775 56.765L126.775 56.7651L126.775 56.766L126.775 56.7662L126.775 56.7663L126.775 56.7665L126.775 56.7666L126.775 56.7668L126.775 56.767L126.775 56.7671L126.775 56.7673L126.775 56.7674C126.698 57.8715 126.621 58.9756 126.53 60.0787C126.458 60.8468 126.369 61.6109 126.279 62.3876L126.279 62.3878L126.279 62.3879L126.279 62.3881L126.279 62.3883L126.279 62.3884L126.279 62.3886L126.279 62.3887L126.279 62.3889L126.279 62.3893L126.279 62.3895L126.279 62.3897L126.279 62.3899L126.279 62.3907C126.224 62.8594 126.17 63.3327 126.117 63.8141ZM179.176 79.274C180.569 77.5857 182.039 77.0637 183.701 77.6452C184.95 78.0787 185.52 79.2009 185.285 80.7685C185.14 81.7428 183.884 82.8683 182.887 82.9142H182.458C181.348 82.9142 181.348 82.9142 181.345 81.8176C181.345 81.7724 181.345 81.7265 181.346 81.6803C181.351 81.2052 181.357 80.6975 180.796 80.5611C180.181 80.4115 179.679 80.7481 179.393 81.3551C178.994 82.195 178.848 83.086 178.769 84.0024C178.686 84.9819 178.59 85.9609 178.495 86.94L178.495 86.9415L178.495 86.943L178.495 86.9445L178.495 86.946L178.495 86.9474L178.494 86.9489L178.494 86.9504C178.417 87.7489 178.339 88.5474 178.267 89.3462C178.238 89.6863 178.134 89.8835 177.771 89.8835C177.595 89.8835 177.418 89.8924 177.24 89.9013C176.841 89.9213 176.44 89.9414 176.057 89.8614C174.884 89.6098 174.257 89.1813 174.296 87.765C174.376 84.8746 174.683 82.0063 174.998 79.1397C175.169 77.6226 175.206 77.6231 176.797 77.6434L176.806 77.6435C178.136 77.6605 178.787 78.0991 179.176 79.274ZM152.904 51.8187C154.115 51.533 155.303 51.5704 156.331 52.1706C157.126 52.6297 157.153 53.5784 156.983 54.3554C156.832 55.0453 156.806 55.7395 156.779 56.4315C156.765 56.7986 156.751 57.165 156.718 57.5298C156.649 58.2914 156.573 59.0526 156.497 59.8178L156.497 59.8179L156.497 59.818L156.497 59.818L156.497 59.8181L156.497 59.8182L156.497 59.8191L156.497 59.8192L156.497 59.8194L156.497 59.8195L156.497 59.8196C156.364 61.15 156.23 62.4927 156.13 63.8718C155.873 63.8718 155.616 63.8807 155.36 63.8897C154.789 63.9096 154.221 63.9295 153.668 63.8497C152.469 63.6796 151.984 62.9485 152.1 61.6699C152.136 61.2876 152.162 60.9031 152.188 60.5177L152.188 60.5173L152.188 60.5172C152.227 59.9243 152.267 59.3294 152.344 58.737C152.554 57.1433 152.657 55.5368 152.764 53.8804V53.8803C152.808 53.2023 152.852 52.5159 152.904 51.8187ZM168.941 77.6474C168.67 77.6534 168.402 77.6593 168.138 77.6468C167.787 78.0782 167.798 78.5031 167.809 78.9215L167.809 78.922C167.81 78.955 167.811 78.9879 167.812 79.0207C167.812 79.049 167.813 79.0773 167.813 79.1056C167.816 79.7767 167.749 80.4438 167.682 81.1096V81.1097V81.1098V81.1099V81.11C167.651 81.4225 167.619 81.7348 167.595 82.0471C167.544 82.7214 167.474 83.3958 167.405 84.0709L167.405 84.0714L167.405 84.0719L167.405 84.0724L167.405 84.0729C167.274 85.346 167.143 86.6216 167.129 87.9045C167.119 88.9382 167.51 89.3837 168.476 89.7374C168.881 89.886 169.28 89.8806 169.683 89.8752H169.683C169.921 89.872 170.16 89.8688 170.402 89.8972C171.054 89.9737 171.231 89.6609 171.248 89.0743C171.272 88.151 171.317 87.2227 171.43 86.3062C171.721 83.9377 171.976 81.5676 171.923 79.177C171.908 78.4289 171.483 78.031 170.797 77.8168C170.179 77.6201 169.552 77.6339 168.941 77.6474ZM190.352 89.8702C190.103 89.867 189.858 89.8752 189.616 89.8834C188.96 89.9056 188.326 89.927 187.701 89.7171C186.937 89.4621 186.481 89.0098 186.475 88.1444C186.459 86.498 186.617 84.8659 186.775 83.231C186.841 82.546 186.908 81.8606 186.961 81.1734C186.984 80.8851 187.016 80.5966 187.048 80.3079C187.12 79.6481 187.193 78.9867 187.162 78.322C187.138 77.8119 187.333 77.5943 187.859 77.6334C188.098 77.6513 188.337 77.6482 188.577 77.6451C189.066 77.6388 189.555 77.6324 190.038 77.8034C190.825 78.0772 191.262 78.5907 191.275 79.4119C191.291 80.3622 191.198 81.3058 191.105 82.2491V82.2492V82.2492V82.2493C191.058 82.7304 191.01 83.2114 190.977 83.6931C190.932 84.3455 190.868 84.996 190.805 85.6462C190.732 86.389 190.66 87.1314 190.614 87.8758C190.571 88.5456 190.484 89.2119 190.352 89.8702ZM169.768 76.4458C169.838 76.4483 169.91 76.4508 169.982 76.4551C170.689 76.5078 171.393 76.3266 171.985 75.9399C172.224 75.7889 172.421 75.5799 172.556 75.3328C172.692 75.0856 172.761 74.8083 172.759 74.527C172.754 74.2602 172.668 74.001 172.513 73.7831C172.358 73.5651 172.141 73.3984 171.889 73.3045C170.787 72.8948 169.696 73.0393 168.668 73.6021C167.928 73.9948 167.953 74.6749 167.982 75.355C168.008 75.9421 168.43 76.1079 168.882 76.2857C168.915 76.299 168.949 76.3123 168.983 76.3259C169.251 76.4278 169.504 76.4366 169.768 76.4458H169.768ZM189.299 76.4487C188.763 76.498 188.232 76.4487 187.79 76.1086C187.348 75.7686 187.088 75.3707 187.178 74.813C187.312 73.9782 187.864 73.4681 188.638 73.2828L188.735 73.2586C189.39 73.0949 190.068 72.9256 190.788 73.1978C191.319 73.3967 191.816 73.5956 191.946 74.1533C192.094 74.8334 191.957 75.4914 191.283 75.9114C190.703 76.3094 190.003 76.4989 189.299 76.4487ZM152.908 49.3569C153.05 50.1475 153.634 50.4536 155.176 50.4536C155.784 50.512 156.394 50.3717 156.913 50.054C157.208 49.8819 157.442 49.623 157.582 49.3131C157.722 49.0033 157.761 48.6579 157.695 48.3248C157.643 48.05 157.504 47.7986 157.299 47.6068C157.094 47.4149 156.833 47.2925 156.554 47.2571C155.89 47.113 155.201 47.1334 154.547 47.3166C153.307 47.7212 152.736 48.4099 152.908 49.3569Z" fill="#374151"></path>
  </g>
  <defs>
    <clipPath id="clip0_10772_5045">
      <rect width="192" height="114" fill="white"></rect>
    </clipPath>
  </defs>
</svg>
